<svg xmlns="http://www.w3.org/2000/svg" viewBox="0 0 100 100">
  <defs>
    <linearGradient id="grad" x1="0%" y1="0%" x2="0%" y2="100%">
      <stop offset="0%" style="stop-color:#4A90E2;stop-opacity:1" />
      <stop offset="100%" style="stop-color:#2E5C8A;stop-opacity:1" />
    </linearGradient>
  </defs>
  
  <!-- Background circle -->
  <circle cx="50" cy="50" r="48" fill="url(#grad)" stroke="#1a3d5c" stroke-width="2"/>
  
  <!-- Building silhouette -->
  <rect x="30" y="35" width="15" height="30" fill="#ffffff" opacity="0.9"/>
  <rect x="55" y="25" width="15" height="40" fill="#ffffff" opacity="0.9"/>
  
  <!-- Windows -->
  <rect x="33" y="40" width="4" height="4" fill="#4A90E2"/>
  <rect x="40" y="40" width="4" height="4" fill="#4A90E2"/>
  <rect x="33" y="48" width="4" height="4" fill="#4A90E2"/>
  <rect x="40" y="48" width="4" height="4" fill="#4A90E2"/>
  <rect x="33" y="56" width="4" height="4" fill="#4A90E2"/>
  <rect x="40" y="56" width="4" height="4" fill="#4A90E2"/>
  
  <rect x="58" y="30" width="4" height="4" fill="#4A90E2"/>
  <rect x="65" y="30" width="4" height="4" fill="#4A90E2"/>
  <rect x="58" y="38" width="4" height="4" fill="#4A90E2"/>
  <rect x="65" y="38" width="4" height="4" fill="#4A90E2"/>
  <rect x="58" y="46" width="4" height="4" fill="#4A90E2"/>
  <rect x="65" y="46" width="4" height="4" fill="#4A90E2"/>
  <rect x="58" y="54" width="4" height="4" fill="#4A90E2"/>
  <rect x="65" y="54" width="4" height="4" fill="#4A90E2"/>
  
  <!-- Door -->
  <rect x="36" y="58" width="6" height="7" fill="#2E5C8A"/>
</svg>
