<svg xmlns="http://www.w3.org/2000/svg" id="Calque_1" data-name="Calque 1"
     viewBox="0 0 483.14 216.97"><title>Acaf-blanc Habitat Bleu</title><g id="PQvPpz"><path
  d="M498.36,67.83c-3.7,8.8-7.1,16.7-10.3,24.6-.9,2.3-2.5,2.6-4.7,2.6-10.3-.1-20.7.4-31-.1-18.5-.9-25.2,9.9-27.6,22.1-2.7,13.9-2.7,27.7,3,41,3.4,8,9.6,11.8,18.4,11.8,16-.1,32,.1,48-.1,3.6,0,5,.6,4.8,4.6-.4,6.6-.2,13.3,0,20,.1,2.7-.6,3.8-3.6,3.8-18.3-.1-36.7.9-54.9-.3-21.2-1.4-38.4-13.6-44.4-37.4-5.3-21-6-42.3,3-62.5,8.6-19.5,24.7-29.1,45.7-29.9C462.26,67.33,480,67.83,498.36,67.83Z"
  transform="translate(-261.82 -67.65)" style="fill:#2783c5"></path><path
  d="M692.86,117.63c12.3,0,24.6.1,37-.1,3.6-.1,4.5,1.1,4.4,4.5-.3,6.1-.3,12.3,0,18.5.2,3.9-1.3,4.7-4.8,4.6-14.3-.2-28.6.1-42.9-.2-4.6-.1-5.5,1.4-5.4,5.7.3,14.1,0,28.3.2,42.4.1,3.7-.7,5.3-4.8,5.1-6.8-.4-13.6-.2-20.5,0-2.9.1-4-.6-4-3.8q.15-36.45,0-72.9c0-3.2,1.1-3.8,4-3.8Z"
  transform="translate(-261.82 -67.65)" style="fill:#2783c5"></path><path
  d="M693.56,94.83c-12.5,0-25-.1-37.5.1-3.1,0-4.4-.6-4.3-4,.3-6.5.2-13,0-19.5,0-2.3.2-3.6,3.1-3.6,29,.1,57.9.1,86.9,0,3.7,0,3.5,2.4,2.8,4.2-3,7.4-6.4,14.5-9.7,21.8-.9,1.9-2.6,1.1-4,1.1C718.56,94.83,706.06,94.83,693.56,94.83Z"
  transform="translate(-261.82 -67.65)" style="fill:#2783c5"></path><path
  d="M642.76,194Q618,132.66,593.56,71.21c-1-2.6-2.3-3.5-5.1-3.5-8.5.2-17,.3-25.5,0-3.4-.1-5,1-6.2,4.2-5.7,14.7-11.6,29.3-17.5,43.9-10.4,26.1-20.7,52.1-31.3,78.1-1.4,3.5-.6,4.2,2.9,4.1,7.3-.2,14.7-.4,22,.1,4.6.3,6.7-1.2,8.3-5.5,5-13.2,10.5-26.2,16.1-39.9,4.2,6.3,8,11.7,11.4,17.4,2.1,3.5,4.5,5.1,8.7,4.8,7.3-.4,14.7,0,22-.2,3.1-.1,4.8.6,5.8,3.8,1.9,5.5,4.5,10.7,6.5,16.2,1,2.7,2.4,3.4,5.1,3.4,7.7-.2,15.3-.2,23,0C643.16,198.13,644.26,197.63,642.76,194Zm-82.7-48.4c5.2-12.9,10.2-25.6,15.7-39.3,5.6,13.7,10.8,26.3,16.1,39.3Z"
  transform="translate(-261.82 -67.65)" style="fill:#2783c5"></path><path
  d="M397,195.13q-24.9-62.13-49.8-124.3c-1-2.4-2.3-3.1-4.8-3.1-8.7.2-17.3.2-26,0-3.2-.1-4.5,1-5.7,4-12.8,32.4-25.8,64.8-38.7,97.1-3.1,7.9-6.3,15.7-9.3,23.6-1.7,4.6-1,5.5,3.9,5.5,7.5,0,15-.1,22.5.1,2.8.1,4.1-.9,5.1-3.4,2.8-7.3,5.8-14.5,8.7-21.7,2.6-6.5,5.3-12.9,8.3-20.1,4.6,6.9,8.6,12.7,12.4,18.8,1.5,2.5,3.3,3.3,6.1,3.2,8.2-.2,16.3.1,24.5-.1,2.6-.1,3.8.9,4.7,3.2,2.2,5.7,4.6,11.4,6.9,17.1.7,1.7,1.3,3,3.4,3h28.7C397.5,196.73,397.26,195.93,397,195.13Zm-83.1-49.5c5.2-13,10.3-25.7,15.7-39.3,5.5,13.5,10.7,26.2,16.1,39.3Z"
  transform="translate(-261.82 -67.65)" style="fill:#2783c5"></path></g><path
  d="M506.38,283.92V246.57h-38.9v37.35h-4V212.23h4v30.22h38.9V212.23h4.06v71.69Z" transform="translate(-261.82 -67.65)"
  style="fill:#2783c5"></path><path
  d="M557.75,283.92v-7.13a21.12,21.12,0,0,1-31.28,1.71,22.08,22.08,0,0,1-.1-30.43,21.12,21.12,0,0,1,31.38,1.61v-7.23h4.06v41.47ZM553.5,251a16.9,16.9,0,0,0-24.16-.1,17.52,17.52,0,0,0,0,24.59,16.91,16.91,0,0,0,24.16.11,17.53,17.53,0,0,0,0-24.6Z"
  transform="translate(-261.82 -67.65)" style="fill:#2783c5"></path><path
  d="M608.63,278.4a21.13,21.13,0,0,1-31.78-2.11v7.63H572.8v-74.3h4.05v40.56A21.13,21.13,0,0,1,608.53,248a22.05,22.05,0,0,1,.1,30.43Zm-3-27.41a16.89,16.89,0,0,0-24.15-.1,17.49,17.49,0,0,0,0,24.59,16.9,16.9,0,0,0,24.15.11,17.5,17.5,0,0,0,0-24.6Z"
  transform="translate(-261.82 -67.65)" style="fill:#2783c5"></path><path
  d="M623,235a3.83,3.83,0,0,1-2.28-.9,3.71,3.71,0,0,1-1-2.41c0-1.81,1.09-2.91,3.27-3.32q2.47,0,3.27,3.32Q626.25,235,623,235Zm-2.08,48.9V242.45H625v41.47Z"
  transform="translate(-261.82 -67.65)" style="fill:#2783c5"></path><path
  d="M644.56,246.57v37.35H640.5V246.57H635v-4.12h5.54V224.28h4.06v18.17h9.5v4.12Z" transform="translate(-261.82 -67.65)"
  style="fill:#2783c5"></path><path
  d="M692.86,283.92v-7.13a21.12,21.12,0,0,1-31.28,1.71,22.08,22.08,0,0,1-.1-30.43,21.12,21.12,0,0,1,31.38,1.61v-7.23h4.06v41.47ZM688.61,251a16.9,16.9,0,0,0-24.16-.1,17.52,17.52,0,0,0,0,24.59,16.91,16.91,0,0,0,24.16.11,17.53,17.53,0,0,0,0-24.6Z"
  transform="translate(-261.82 -67.65)" style="fill:#2783c5"></path><path
  d="M715.13,246.57v37.35h-4.06V246.57h-5.54v-4.12h5.54V224.28h4.06v18.17h9.5v4.12Z" transform="translate(-261.82 -67.65)"
  style="fill:#2783c5"></path></svg>
